<?xml version="1.0" encoding="UTF-8"?>
<!DOCTYPE svg PUBLIC "-//W3C//DTD SVG 1.1//EN" "http://www.w3.org/Graphics/SVG/1.1/DTD/svg11.dtd">
<svg xmlns="http://www.w3.org/2000/svg" version="1.1" width="128px" height="128px" style="shape-rendering:geometricPrecision; text-rendering:geometricPrecision; image-rendering:optimizeQuality; fill-rule:evenodd; clip-rule:evenodd" xmlns:xlink="http://www.w3.org/1999/xlink">
<g><path style="opacity:1" fill="#efe6d9" d="M -0.5,-0.5 C 42.1667,-0.5 84.8333,-0.5 127.5,-0.5C 127.5,9.83333 127.5,20.1667 127.5,30.5C 126.053,31.3889 124.386,32.3889 122.5,33.5C 120.457,32.5595 118.457,31.5595 116.5,30.5C 114.186,31.9098 112.52,31.2431 111.5,28.5C 112.952,25.2425 112.286,24.7425 109.5,27C 110.833,28.8402 110.666,29.3402 109,28.5C 108.5,29.5 108,30.5 107.5,31.5C 108.99,32.8257 110.324,34.3257 111.5,36C 109.956,35.5134 108.29,35.0134 106.5,34.5C 106.67,33.1779 106.337,32.0113 105.5,31C 108.097,28.7382 107.93,26.9049 105,25.5C 104.311,26.3567 103.478,27.0233 102.5,27.5C 101.859,25.7045 100.859,24.2045 99.5,23C 102.06,23.2138 104.726,23.2138 107.5,23C 106.346,23.9138 106.513,24.7471 108,25.5C 109.152,21.5728 111.152,20.9061 114,23.5C 114.414,23.0426 114.914,22.7093 115.5,22.5C 115.736,23.2472 116.07,24.0805 116.5,25C 112.624,24.6508 112.624,25.4841 116.5,27.5C 115.001,28.9038 115.334,29.5704 117.5,29.5C 118.647,29.1822 119.481,28.5156 120,27.5C 120.556,29.5951 121.056,29.7618 121.5,28C 120.66,26.2326 119.327,24.8993 117.5,24C 118.977,22.1164 120.31,20.1164 121.5,18C 119.981,16.6487 118.648,15.1487 117.5,13.5C 119.31,11.2927 119.643,8.95932 118.5,6.5C 116.629,7.76698 114.796,7.76698 113,6.5C 110.376,7.61078 108.876,9.61078 108.5,12.5C 107.105,11.1854 106.105,11.5188 105.5,13.5C 106.025,14.1924 106.692,14.6924 107.5,15C 106.786,16.3431 107.12,17.6764 108.5,19C 108,19.5 107.5,20 107,20.5C 105.23,19.6515 103.563,17.9848 102,15.5C 101.395,17.4812 100.395,17.8146 99,16.5C 94.7299,18.2295 94.8966,19.0628 99.5,19C 98.6667,20.5 97.5,21.6667 96,22.5C 95.3333,23.1667 95.3333,23.8333 96,24.5C 98.8213,27.4054 101.655,29.572 104.5,31C 102.581,32.9338 101.081,32.7671 100,30.5C 97.9324,32.5615 95.4324,33.7282 92.5,34C 92.8333,34.3333 93.1667,34.6667 93.5,35C 92.5842,35.2784 91.9175,35.7784 91.5,36.5C 78.5829,29.5693 64.9163,27.4027 50.5,30C 34.1951,35.6502 21.5284,45.8168 12.5,60.5C 17.67,75.6573 27.3367,86.6573 41.5,93.5C 40.596,94.209 40.2627,95.209 40.5,96.5C 38.3337,96.5789 36.3337,97.2455 34.5,98.5C 33.3279,98.0814 32.3279,97.4147 31.5,96.5C 30.0013,98.8022 28.668,98.4689 27.5,95.5C 24.9722,96.4978 24.9722,97.3311 27.5,98C 22.1667,98.6667 16.8333,98.6667 11.5,98C 9.83333,97 8.16667,96 6.5,95C 6.83333,94.6667 7.16667,94.3333 7.5,94C 5.76499,93.3486 4.09833,93.5153 2.5,94.5C 1.26501,93.6602 0.265012,92.6602 -0.5,91.5C -0.5,60.8333 -0.5,30.1667 -0.5,-0.5 Z"/></g>
<g><path style="opacity:1" fill="#ede6d8" d="M 127.5,30.5 C 127.5,61.1667 127.5,91.8333 127.5,122.5C 126.532,120.393 126.198,118.059 126.5,115.5C 125.448,115.649 124.448,115.483 123.5,115C 126.827,113.209 127.16,111.043 124.5,108.5C 125.246,107.264 125.579,105.93 125.5,104.5C 117.627,103.913 109.96,104.58 102.5,106.5C 101.304,106.154 101.304,105.654 102.5,105C 101,104.833 99.5,104.667 98,104.5C 88.671,104.588 79.3376,104.588 70,104.5C 66.8838,104.28 64.0505,104.947 61.5,106.5C 60.6919,106.192 60.0253,105.692 59.5,105C 55.4112,104.859 51.4112,104.692 47.5,104.5C 45.9121,105.01 44.7455,106.01 44,107.5C 42.414,106.624 40.914,105.624 39.5,104.5C 37.7244,104.718 35.891,104.718 34,104.5C 32.2382,104.944 32.4049,105.444 34.5,106C 32.4153,106.529 30.582,106.029 29,104.5C 28.0546,104.905 27.3879,105.572 27,106.5C 26.2496,105.874 25.4162,105.374 24.5,105C 19.8333,104.333 15.1667,104.333 10.5,105C 14.1658,105.39 14.3324,106.557 11,108.5C 9.89024,104.721 8.39024,104.554 6.5,108C 9.15419,109.569 11.8209,111.236 14.5,113C 13.1588,114.295 11.8255,114.795 10.5,114.5C 16.3537,115.055 17.0204,117.055 12.5,120.5C 9.54271,120.591 7.54271,118.924 6.5,115.5C 7.26236,115.089 8.26236,114.923 9.5,115C 8.33333,113.833 7.16667,112.667 6,111.5C 5.58138,112.672 4.91471,113.672 4,114.5C 2.26016,113.284 1.26016,111.618 1,109.5C 0.617425,110.056 0.117425,110.389 -0.5,110.5C -0.5,104.167 -0.5,97.8333 -0.5,91.5C 0.265012,92.6602 1.26501,93.6602 2.5,94.5C 4.09833,93.5153 5.76499,93.3486 7.5,94C 7.16667,94.3333 6.83333,94.6667 6.5,95C 8.16667,96 9.83333,97 11.5,98C 16.8333,98.6667 22.1667,98.6667 27.5,98C 24.9722,97.3311 24.9722,96.4978 27.5,95.5C 28.668,98.4689 30.0013,98.8022 31.5,96.5C 32.3279,97.4147 33.3279,98.0814 34.5,98.5C 36.3337,97.2455 38.3337,96.5789 40.5,96.5C 40.2627,95.209 40.596,94.209 41.5,93.5C 46.5845,95.7711 51.9178,97.1045 57.5,97.5C 65.0387,98.7782 72.7053,98.6115 80.5,97C 80.8333,96.6667 81.1667,96.3333 81.5,96C 75.8732,84.3775 78.8732,75.8775 90.5,70.5C 91.609,70.4431 92.609,70.1098 93.5,69.5C 97.8461,69.6657 102.179,69.499 106.5,69C 104.418,67.1689 102.085,66.0022 99.5,65.5C 102.97,64.8748 105.804,65.8748 108,68.5C 108.333,71.8333 108.667,75.1667 109,78.5C 116.026,67.9083 114.859,58.4083 105.5,50C 104.365,49.2506 103.365,49.4173 102.5,50.5C 101.902,51.7946 101.402,53.1279 101,54.5C 98.1793,56.3224 95.6793,58.4891 93.5,61C 94.5707,61.8518 95.5707,62.6851 96.5,63.5C 93.8333,63.1667 91.1667,62.8333 88.5,62.5C 85.5,61.8333 82.5,61.1667 79.5,60.5C 83.3194,59.019 87.3194,58.1856 91.5,58C 94.0761,54.2847 95.0761,50.118 94.5,45.5C 95.9778,45.762 97.3112,45.4287 98.5,44.5C 96.8309,41.1697 94.4975,38.5031 91.5,36.5C 91.9175,35.7784 92.5842,35.2784 93.5,35C 93.1667,34.6667 92.8333,34.3333 92.5,34C 95.4324,33.7282 97.9324,32.5615 100,30.5C 101.081,32.7671 102.581,32.9338 104.5,31C 101.655,29.572 98.8213,27.4054 96,24.5C 95.3333,23.8333 95.3333,23.1667 96,22.5C 97.5,21.6667 98.6667,20.5 99.5,19C 94.8966,19.0628 94.7299,18.2295 99,16.5C 100.395,17.8146 101.395,17.4812 102,15.5C 103.563,17.9848 105.23,19.6515 107,20.5C 107.5,20 108,19.5 108.5,19C 107.12,17.6764 106.786,16.3431 107.5,15C 106.692,14.6924 106.025,14.1924 105.5,13.5C 106.105,11.5188 107.105,11.1854 108.5,12.5C 108.876,9.61078 110.376,7.61078 113,6.5C 114.796,7.76698 116.629,7.76698 118.5,6.5C 119.643,8.95932 119.31,11.2927 117.5,13.5C 118.648,15.1487 119.981,16.6487 121.5,18C 120.31,20.1164 118.977,22.1164 117.5,24C 119.327,24.8993 120.66,26.2326 121.5,28C 121.056,29.7618 120.556,29.5951 120,27.5C 119.481,28.5156 118.647,29.1822 117.5,29.5C 115.334,29.5704 115.001,28.9038 116.5,27.5C 112.624,25.4841 112.624,24.6508 116.5,25C 116.07,24.0805 115.736,23.2472 115.5,22.5C 114.914,22.7093 114.414,23.0426 114,23.5C 111.152,20.9061 109.152,21.5728 108,25.5C 106.513,24.7471 106.346,23.9138 107.5,23C 104.726,23.2138 102.06,23.2138 99.5,23C 100.859,24.2045 101.859,25.7045 102.5,27.5C 103.478,27.0233 104.311,26.3567 105,25.5C 107.93,26.9049 108.097,28.7382 105.5,31C 106.337,32.0113 106.67,33.1779 106.5,34.5C 108.29,35.0134 109.956,35.5134 111.5,36C 110.324,34.3257 108.99,32.8257 107.5,31.5C 108,30.5 108.5,29.5 109,28.5C 110.666,29.3402 110.833,28.8402 109.5,27C 112.286,24.7425 112.952,25.2425 111.5,28.5C 112.52,31.2431 114.186,31.9098 116.5,30.5C 118.457,31.5595 120.457,32.5595 122.5,33.5C 124.386,32.3889 126.053,31.3889 127.5,30.5 Z"/></g>
<g><path style="opacity:1" fill="#a80419" d="M 91.5,36.5 C 94.4975,38.5031 96.8309,41.1697 98.5,44.5C 97.3112,45.4287 95.9778,45.762 94.5,45.5C 95.0761,50.118 94.0761,54.2847 91.5,58C 87.3194,58.1856 83.3194,59.019 79.5,60.5C 78.209,60.2627 77.209,60.596 76.5,61.5C 74.5,61.5 72.5,61.5 70.5,61.5C 70.5,62.5 70.5,63.5 70.5,64.5C 76.3343,64.0499 82.001,64.7166 87.5,66.5C 86.6602,67.735 85.6602,68.735 84.5,69.5C 71.029,73.9787 63.3623,83.312 61.5,97.5C 60.1667,97.5 58.8333,97.5 57.5,97.5C 51.9178,97.1045 46.5845,95.7711 41.5,93.5C 27.3367,86.6573 17.67,75.6573 12.5,60.5C 21.5284,45.8168 34.1951,35.6502 50.5,30C 64.9163,27.4027 78.5829,29.5693 91.5,36.5 Z"/></g>
<g><path style="opacity:1" fill="#790513" d="M 62.5,39.5 C 68.4683,41.1429 74.4683,42.8095 80.5,44.5C 81.4419,44.3918 82.2753,44.0585 83,43.5C 84.7194,45.5571 86.7194,47.2237 89,48.5C 90.605,47.8993 91.9384,46.8993 93,45.5C 92.8987,47.9558 91.5653,49.6225 89,50.5C 86.5667,49.5212 84.0667,48.8545 81.5,48.5C 81.5,49.5 81.5,50.5 81.5,51.5C 78.8602,51.954 76.5268,53.1207 74.5,55C 65.1998,56.3673 61.3664,52.5339 63,43.5C 59.2539,48.5159 60.0872,52.6826 65.5,56C 69.5753,56.5184 73.5753,56.5184 77.5,56C 72.5379,59.3235 67.5379,59.3235 62.5,56C 60.1667,53 57.8333,50 55.5,47C 53.5,46.6667 51.5,46.3333 49.5,46C 54.2314,44.2795 58.5647,42.1129 62.5,39.5 Z"/></g>
<g><path style="opacity:1" fill="#873532" d="M 96.5,51.5 C 100.339,52.05 100.339,53.05 96.5,54.5C 95.4376,53.5754 95.4376,52.5754 96.5,51.5 Z"/></g>
<g><path style="opacity:1" fill="#e5d7c9" d="M 66.5,43.5 C 67.8333,43.5 69.1667,43.5 70.5,43.5C 70.7711,45.8211 70.1045,47.8211 68.5,49.5C 69.6927,51.3837 71.3594,51.8837 73.5,51C 74.7717,49.6932 75.7717,48.1932 76.5,46.5C 77.938,51.2702 76.1046,53.9369 71,54.5C 64.5399,52.9093 63.0399,49.2427 66.5,43.5 Z"/></g>
<g><path style="opacity:1" fill="#780a15" d="M 99.5,65.5 C 99.0269,64.0937 98.0269,63.427 96.5,63.5C 95.5707,62.6851 94.5707,61.8518 93.5,61C 95.6793,58.4891 98.1793,56.3224 101,54.5C 101.402,53.1279 101.902,51.7946 102.5,50.5C 103.365,49.4173 104.365,49.2506 105.5,50C 114.859,58.4083 116.026,67.9083 109,78.5C 108.667,75.1667 108.333,71.8333 108,68.5C 105.804,65.8748 102.97,64.8748 99.5,65.5 Z"/></g>
<g><path style="opacity:1" fill="#b57e7a" d="M 76.5,61.5 C 77.209,60.596 78.209,60.2627 79.5,60.5C 82.5,61.1667 85.5,61.8333 88.5,62.5C 85.9407,62.1984 83.6074,62.5318 81.5,63.5C 79.4727,63.6621 77.4727,63.4955 75.5,63C 76.1667,62.6667 76.8333,62.3333 77.5,62C 77.2716,61.6012 76.9382,61.4346 76.5,61.5 Z"/></g>
<g><path style="opacity:1" fill="#e2ccbe" d="M 76.5,61.5 C 76.9382,61.4346 77.2716,61.6012 77.5,62C 76.8333,62.3333 76.1667,62.6667 75.5,63C 77.4727,63.4955 79.4727,63.6621 81.5,63.5C 85.8424,63.2779 89.5091,64.6112 92.5,67.5C 90.8333,68.1667 89.1667,68.8333 87.5,69.5C 86.5,69.5 85.5,69.5 84.5,69.5C 85.6602,68.735 86.6602,67.735 87.5,66.5C 82.001,64.7166 76.3343,64.0499 70.5,64.5C 70.5,63.5 70.5,62.5 70.5,61.5C 72.5,61.5 74.5,61.5 76.5,61.5 Z"/></g>
<g><path style="opacity:1" fill="#d6b9ae" d="M 96.5,63.5 C 98.0269,63.427 99.0269,64.0937 99.5,65.5C 97.9731,65.573 96.9731,64.9063 96.5,63.5 Z"/></g>
<g><path style="opacity:1" fill="#770c15" d="M 81.5,63.5 C 83.6074,62.5318 85.9407,62.1984 88.5,62.5C 91.1667,62.8333 93.8333,63.1667 96.5,63.5C 96.9731,64.9063 97.9731,65.573 99.5,65.5C 102.085,66.0022 104.418,67.1689 106.5,69C 102.179,69.499 97.8461,69.6657 93.5,69.5C 93.6716,68.5084 93.3382,67.8417 92.5,67.5C 89.5091,64.6112 85.8424,63.2779 81.5,63.5 Z"/></g>
<g><path style="opacity:1" fill="#b57f7c" d="M 92.5,67.5 C 93.3382,67.8417 93.6716,68.5084 93.5,69.5C 92.609,70.1098 91.609,70.4431 90.5,70.5C 89.791,69.596 88.791,69.2627 87.5,69.5C 89.1667,68.8333 90.8333,68.1667 92.5,67.5 Z"/></g>
<g><path style="opacity:1" fill="#790815" d="M 84.5,69.5 C 85.5,69.5 86.5,69.5 87.5,69.5C 88.791,69.2627 89.791,69.596 90.5,70.5C 78.8732,75.8775 75.8732,84.3775 81.5,96C 81.1667,96.3333 80.8333,96.6667 80.5,97C 72.7053,98.6115 65.0387,98.7782 57.5,97.5C 58.8333,97.5 60.1667,97.5 61.5,97.5C 63.3623,83.312 71.029,73.9787 84.5,69.5 Z"/></g>
<g><path style="opacity:1" fill="#f1e7da" d="M 127.5,122.5 C 127.5,124.167 127.5,125.833 127.5,127.5C 84.8333,127.5 42.1667,127.5 -0.5,127.5C -0.5,121.833 -0.5,116.167 -0.5,110.5C 0.117425,110.389 0.617425,110.056 1,109.5C 1.26016,111.618 2.26016,113.284 4,114.5C 4.91471,113.672 5.58138,112.672 6,111.5C 7.16667,112.667 8.33333,113.833 9.5,115C 8.26236,114.923 7.26236,115.089 6.5,115.5C 7.54271,118.924 9.54271,120.591 12.5,120.5C 17.0204,117.055 16.3537,115.055 10.5,114.5C 11.8255,114.795 13.1588,114.295 14.5,113C 11.8209,111.236 9.15419,109.569 6.5,108C 8.39024,104.554 9.89024,104.721 11,108.5C 14.3324,106.557 14.1658,105.39 10.5,105C 15.1667,104.333 19.8333,104.333 24.5,105C 25.4162,105.374 26.2496,105.874 27,106.5C 27.3879,105.572 28.0546,104.905 29,104.5C 30.582,106.029 32.4153,106.529 34.5,106C 32.4049,105.444 32.2382,104.944 34,104.5C 35.891,104.718 37.7244,104.718 39.5,104.5C 40.914,105.624 42.414,106.624 44,107.5C 44.7455,106.01 45.9121,105.01 47.5,104.5C 51.4112,104.692 55.4112,104.859 59.5,105C 60.0253,105.692 60.6919,106.192 61.5,106.5C 64.0505,104.947 66.8838,104.28 70,104.5C 79.3376,104.588 88.671,104.588 98,104.5C 99.5,104.667 101,104.833 102.5,105C 101.304,105.654 101.304,106.154 102.5,106.5C 109.96,104.58 117.627,103.913 125.5,104.5C 125.579,105.93 125.246,107.264 124.5,108.5C 127.16,111.043 126.827,113.209 123.5,115C 124.448,115.483 125.448,115.649 126.5,115.5C 126.198,118.059 126.532,120.393 127.5,122.5 Z"/></g>
</svg>
