<svg xmlns="http://www.w3.org/2000/svg" viewBox="0 0 100 100">
  <rect width="100" height="100" fill="#f5f0e8"/>

  <!--
    Haukhovud i profil (mot høgre).
    Konturen: nakkje → krone → panne → overnebbe → krok nedover → undernebbe → hake → nakkje
  -->
  <path d="
    M 18,52
    C 16,36 22,18 40,12
    C 54,7  70,13 77,27
    L 93,31
    C 97,37 97,49 91,55
    L 83,53
    C 79,51 75,48 73,46
    C 65,58 50,66 33,63
    C 24,61 18,58 18,52
    Z
  " fill="#b8001f"/>

  <!-- Supraorbitalkant — den «sinte» haukaugnebryna -->
  <path d="
    M 38,18
    C 50,13 64,16 73,27
    C 64,22 52,20 40,24
    Z
  " fill="#8c0019"/>

  <!-- Auge -->
  <circle cx="46" cy="30" r="7"   fill="#f5f0e8"/>
  <circle cx="47" cy="31" r="3.5" fill="#2a0008"/>
  <circle cx="45" cy="29" r="1.2" fill="#f5f0e8"/>
</svg>
