<svg xmlns="http://www.w3.org/2000/svg" viewBox="0 0 100 100">
  <rect width="100" height="100" fill="#f5f0e8"/>

  <!-- Hauk i profil, mot høgre -->

  <!-- Vinge bak kropp -->
  <path d="
    M 24,36
    C 10,44 4,60 8,72
    C 14,76 22,72 30,64
    C 24,56 18,46 22,38
    Z
  " fill="#b8001f"/>

  <!-- Kropp + hovud -->
  <path d="
    M 54,18
    C 46,12 34,12 26,22
    C 18,32 16,48 20,60
    C 24,72 34,80 46,82
    C 58,84 70,76 74,64
    C 78,52 74,38 66,30
    C 62,24 58,18 54,18
    Z
  " fill="#b8001f"/>

  <!-- Nebb (øvre del) -->
  <path d="
    M 68,20
    C 60,14 52,18 50,26
    C 56,26 64,28 70,34
    C 74,28 72,22 68,20
    Z
  " fill="#b8001f"/>

  <!-- Nebb (krok nedst) -->
  <path d="
    M 70,34
    C 76,40 78,48 72,52
    C 68,48 66,40 70,34
    Z
  " fill="#b8001f"/>

  <!-- Auge -->
  <circle cx="50" cy="28" r="5" fill="#f5f0e8"/>
  <circle cx="51" cy="28" r="2.5" fill="#8a0018"/>
</svg>
