<?xml version="1.0" encoding="UTF-8"?>
<!DOCTYPE svg PUBLIC "-//W3C//DTD SVG 1.1//EN" "http://www.w3.org/Graphics/SVG/1.1/DTD/svg11.dtd">
<svg xmlns="http://www.w3.org/2000/svg" version="1.1" width="128px" height="128px" style="shape-rendering:geometricPrecision; text-rendering:geometricPrecision; image-rendering:optimizeQuality; fill-rule:evenodd; clip-rule:evenodd" xmlns:xlink="http://www.w3.org/1999/xlink">
<g><path style="opacity:1" fill="#191812" d="M -0.5,-0.5 C 42.1667,-0.5 84.8333,-0.5 127.5,-0.5C 127.5,42.1667 127.5,84.8333 127.5,127.5C 84.8333,127.5 42.1667,127.5 -0.5,127.5C -0.5,84.8333 -0.5,42.1667 -0.5,-0.5 Z"/></g>
<g><path style="opacity:1" fill="#c53042" d="M 80.5,84.5 C 78.8639,85.7489 77.6972,87.4156 77,89.5C 76.5017,92.8168 76.335,96.1501 76.5,99.5C 58.1382,101.714 42.4715,96.3802 29.5,83.5C 20.1739,73.6929 15.0072,62.0263 14,48.5C 38.4725,25.4765 65.3058,22.3099 94.5,39C 96.5299,40.8962 98.1966,43.0629 99.5,45.5C 97.1567,46.7253 95.3234,46.0586 94,43.5C 94.2388,47.1842 92.7388,49.8509 89.5,51.5C 88.1667,50.1667 86.8333,48.8333 85.5,47.5C 84.8333,48.1667 84.1667,48.8333 83.5,49.5C 76.2737,46.6367 69.107,43.6367 62,40.5C 59.0459,40.5944 58.8792,41.0944 61.5,42C 56.7163,44.1127 51.7163,45.4461 46.5,46C 49.3004,47.2319 52.3004,47.8985 55.5,48C 58.5935,57.5468 64.9269,60.7135 74.5,57.5C 74.5,58.5 74.5,59.5 74.5,60.5C 76.7721,59.5589 78.7721,58.2255 80.5,56.5C 84.3776,58.4008 84.3776,60.2341 80.5,62C 77.6366,63.3989 74.6366,64.3989 71.5,65C 68.0847,66.1433 67.7514,67.81 70.5,70C 75.5329,70.171 80.5329,70.671 85.5,71.5C 84.5,72.3333 83.5,73.1667 82.5,74C 91.9676,73.5162 92.6342,75.1828 84.5,79C 82.5359,80.451 81.2026,82.2843 80.5,84.5 Z"/></g>
<g><path style="opacity:1" fill="#dfdfdf" d="M 64.5,44.5 C 67.4841,44.7868 68.8174,46.4535 68.5,49.5C 64.7887,50.866 65.122,52.1993 69.5,53.5C 70.4419,53.3918 71.2753,53.0585 72,52.5C 72.2189,51.062 72.7189,49.7287 73.5,48.5C 75.3837,49.6927 75.8837,51.3594 75,53.5C 69.0476,59.3423 64.5476,58.3423 61.5,50.5C 61.9837,48.1992 62.9837,46.1992 64.5,44.5 Z"/></g>
<g><path style="opacity:1" fill="#be2e40" d="M 101.5,59.5 C 103.223,57.7472 104.723,55.7472 106,53.5C 113.688,58.8964 116.354,66.2297 114,75.5C 113.014,78.8057 111.514,81.8057 109.5,84.5C 108.677,81.023 108.177,77.3563 108,73.5C 107.167,72.6667 106.333,71.8333 105.5,71C 101.276,70.215 97.2757,68.8817 93.5,67C 87.8333,66.3333 82.1667,66.3333 76.5,67C 87.2686,66.6689 97.2686,69.0023 106.5,74C 105.584,74.2784 104.918,74.7784 104.5,75.5C 98.8217,74.8317 93.155,73.9984 87.5,73C 88.1667,72.3333 88.8333,71.6667 89.5,71C 83.6445,69.1769 77.6445,68.0102 71.5,67.5C 78.3971,65.1892 85.3971,63.0226 92.5,61C 93.1875,56.8394 94.0209,52.6727 95,48.5C 98.7163,47.759 101.883,48.9256 104.5,52C 103.349,54.4649 102.349,56.9649 101.5,59.5 Z"/></g>
<g><path style="opacity:1" fill="#191510" d="M 97.5,55.5 C 98.552,55.3505 99.552,55.5172 100.5,56C 96.5289,59.4738 95.5289,59.3071 97.5,55.5 Z"/></g>
<g><path style="opacity:1" fill="#311817" d="M 101.5,59.5 C 100.998,61.0847 99.9976,61.5847 98.5,61C 99.2438,59.9614 100.244,59.4614 101.5,59.5 Z"/></g>
<g><path style="opacity:1" fill="#191312" d="M 109.5,84.5 C 109.56,85.0431 109.893,85.3764 110.5,85.5C 113.331,83.6759 115.331,81.1759 116.5,78C 119.181,77.3363 121.515,78.003 123.5,80C 121.833,80.3333 120.167,80.6667 118.5,81C 119.601,83.2924 118.768,84.7924 116,85.5C 115.934,89.2335 115.101,92.7335 113.5,96C 111.89,97.4947 110.224,97.6613 108.5,96.5C 106.954,97.684 105.287,98.684 103.5,99.5C 103.808,100.308 104.308,100.975 105,101.5C 106.241,99.5794 107.741,99.246 109.5,100.5C 109.023,101.478 108.357,102.311 107.5,103C 109.376,104.375 111.376,105.542 113.5,106.5C 110.559,106.906 107.559,106.906 104.5,106.5C 102.162,107.337 99.8284,108.17 97.5,109C 96.6433,109.689 95.9767,110.522 95.5,111.5C 96.7111,112.72 96.7111,113.887 95.5,115C 97.519,115.45 99.3523,116.283 101,117.5C 102.92,114.562 105.42,113.895 108.5,115.5C 109.833,116.833 109.833,118.167 108.5,119.5C 106.604,119.093 104.271,119.093 101.5,119.5C 100.281,120.263 99.2807,121.263 98.5,122.5C 97.1667,121.5 95.8333,120.5 94.5,119.5C 92.4534,121.736 90.12,122.069 87.5,120.5C 84.9223,120.615 83.4223,121.949 83,124.5C 80.0929,122.267 78.9262,119.267 79.5,115.5C 81.4672,115.261 83.3005,115.594 85,116.5C 86.0217,115.646 86.8551,114.646 87.5,113.5C 86.0382,113.935 85.0382,113.102 84.5,111C 84.8919,109.989 85.5585,109.489 86.5,109.5C 84.1967,108.358 82.0301,107.025 80,105.5C 79.5,105.833 79,106.167 78.5,106.5C 80.3909,108.849 80.7242,111.515 79.5,114.5C 77.8333,114.5 76.1667,114.5 74.5,114.5C 74.8579,112.08 75.6913,110.08 77,108.5C 75.5589,109.26 74.0589,109.926 72.5,110.5C 72.7036,109.471 72.2036,108.471 71,107.5C 70.7811,108.938 70.2811,110.271 69.5,111.5C 67.8662,111.968 66.6995,112.968 66,114.5C 65.5,114 65,113.5 64.5,113C 65.6853,111.647 67.0186,110.48 68.5,109.5C 68.1924,108.692 67.6924,108.025 67,107.5C 65,109.167 63,110.833 61,112.5C 58.8913,111.965 58.3913,110.965 59.5,109.5C 56.9815,108.485 54.8149,109.152 53,111.5C 49.974,108.366 46.6407,106.366 43,105.5C 42.5,106 42,106.5 41.5,107C 41.0574,108.518 41.7241,109.685 43.5,110.5C 42.4125,112.105 43.0792,112.771 45.5,112.5C 47.0441,112.21 48.3774,111.544 49.5,110.5C 50.731,111.651 50.731,112.817 49.5,114C 52.209,114.541 54.209,116.041 55.5,118.5C 55.1924,119.308 54.6924,119.975 54,120.5C 52.4933,119.495 51.3267,118.162 50.5,116.5C 46.2504,115.373 42.2504,113.707 38.5,111.5C 39.5771,109.271 40.2437,106.937 40.5,104.5C 37.306,104.176 36.306,105.342 37.5,108C 35.4311,108.324 35.0977,109.158 36.5,110.5C 35.0186,111.48 33.6853,112.647 32.5,114C 31.2161,114.684 30.0495,114.517 29,113.5C 27.513,114.253 27.3463,115.086 28.5,116C 26.5273,116.495 24.5273,116.662 22.5,116.5C 22.2384,113.079 23.5717,112.079 26.5,113.5C 28.9647,112.868 30.6314,111.368 31.5,109C 29.8374,108.735 28.3374,109.235 27,110.5C 24.6308,109.073 24.1308,107.239 25.5,105C 27.556,104.689 29.556,104.189 31.5,103.5C 32.6139,102.277 32.7805,100.944 32,99.5C 30.6796,99.799 29.1796,99.9657 27.5,100C 26.3237,102.301 24.9904,102.634 23.5,101C 24.1667,99.6667 24.8333,98.3333 25.5,97C 23.7795,96.2607 22.1128,95.4274 20.5,94.5C 23.9084,89.4685 23.075,88.4685 18,91.5C 16.2909,88.2883 14.7909,88.1216 13.5,91C 12.2161,91.6838 11.0495,91.5171 10,90.5C 9.5,91.6667 8.66667,92.5 7.5,93C 10.4654,95.0891 13.2988,94.9225 16,92.5C 16.346,94.2182 16.846,95.8849 17.5,97.5C 16.1057,99.6018 14.439,99.9351 12.5,98.5C 6.67886,100.433 6.01219,103.6 10.5,108C 8.40539,110.696 6.90539,113.53 6,116.5C 5.1751,118.701 5.6751,120.534 7.5,122C 6.78937,123.255 5.95604,124.421 5,125.5C 4.03283,123.37 2.86616,121.37 1.5,119.5C 3.82657,116.176 3.99324,112.842 2,109.5C 1.33333,101.167 1.33333,92.8333 2,84.5C 2.33333,83.8333 2.66667,83.1667 3,82.5C 5.1917,83.3995 7.35837,84.3995 9.5,85.5C 12.0281,84.4918 14.1947,85.1584 16,87.5C 16.9503,86.9777 17.7836,86.311 18.5,85.5C 19.086,85.7093 19.586,86.0426 20,86.5C 21.3406,83.8134 23.0072,82.1468 25,81.5C 26.0437,82.6226 26.7104,83.9559 27,85.5C 27.7083,84.6195 28.5416,83.9528 29.5,83.5C 42.4715,96.3802 58.1382,101.714 76.5,99.5C 76.335,96.1501 76.5017,92.8168 77,89.5C 77.6972,87.4156 78.8639,85.7489 80.5,84.5C 80.7828,85.2891 81.2828,85.9558 82,86.5C 84.5836,85.1386 86.5836,85.8052 88,88.5C 89.7342,86.5494 91.9009,85.5494 94.5,85.5C 94.1756,82.306 95.3422,81.306 98,82.5C 98.49,83.7932 98.6567,85.1266 98.5,86.5C 100.835,85.5865 103.001,84.2532 105,82.5C 105.49,81.2068 105.657,79.8734 105.5,78.5C 103.058,78.3537 102.391,79.187 103.5,81C 102.123,82.241 100.79,82.4077 99.5,81.5C 101.645,80.3175 101.645,78.8175 99.5,77C 102.016,76.9091 103.682,76.4091 104.5,75.5C 104.918,74.7784 105.584,74.2784 106.5,74C 97.2686,69.0023 87.2686,66.6689 76.5,67C 82.1667,66.3333 87.8333,66.3333 93.5,67C 97.2757,68.8817 101.276,70.215 105.5,71C 106.333,71.8333 107.167,72.6667 108,73.5C 108.177,77.3563 108.677,81.023 109.5,84.5 Z"/></g>
<g><path style="opacity:1" fill="#838080" d="M 120.5,118.5 C 124.095,119.905 124.262,121.572 121,123.5C 120.167,122.667 119.333,121.833 118.5,121C 119.381,120.292 120.047,119.458 120.5,118.5 Z"/></g>
</svg>
